<?xml version="1.0" encoding="utf-8"?>
<!-- Generator: Adobe Illustrator 24.2.0, SVG Export Plug-In . SVG Version: 6.00 Build 0)  -->
<svg version="1.1" id="Capa_1" xmlns="http://www.w3.org/2000/svg" xmlns:xlink="http://www.w3.org/1999/xlink" x="0px" y="0px"
	 viewBox="0 0 221 50" style="enable-background:new 0 0 221 50;" xml:space="preserve">
<style type="text/css">
	.st0{clip-path:url(#SVGID_2_);}
	.st1{fill:#FFFFFF;}
</style>
<g>
	<defs>
		<rect id="SVGID_1_" width="221" height="50"/>
	</defs>
	<clipPath id="SVGID_2_">
		<use xlink:href="#SVGID_1_"  style="overflow:visible;"/>
	</clipPath>
	<g class="st0">
		<path class="st1" d="M75.6,13.3h-5.8v-1.8c0-0.8-0.1-1.4-0.2-1.6c-0.1-0.2-0.4-0.3-0.7-0.3c-0.4,0-0.7,0.1-0.9,0.4
			c-0.2,0.3-0.3,0.8-0.3,1.4c0,0.8,0.1,1.4,0.3,1.8c0.2,0.4,0.8,0.9,1.8,1.5c2.8,1.6,4.6,3,5.3,4.1c0.7,1.1,1.1,2.8,1.1,5.1
			c0,1.7-0.2,3-0.6,3.8c-0.4,0.8-1.2,1.5-2.4,2c-1.2,0.6-2.5,0.8-4,0.8c-1.7,0-3.1-0.3-4.3-1c-1.2-0.6-2-1.4-2.4-2.4
			c-0.4-1-0.6-2.4-0.6-4.1v-1.6h5.8v2.9c0,0.9,0.1,1.5,0.3,1.7c0.1,0.3,0.4,0.4,0.9,0.4c0.4,0,0.7-0.1,0.9-0.5
			c0.2-0.3,0.3-0.8,0.3-1.4c0-1.4-0.2-2.3-0.6-2.8c-0.4-0.4-1.4-1.1-2.9-2.2c-1.6-1-2.6-1.8-3.1-2.2c-0.5-0.5-0.9-1.1-1.3-1.9
			c-0.3-0.8-0.5-1.9-0.5-3.1c0-1.9,0.2-3.2,0.7-4c0.5-0.9,1.2-1.5,2.3-2c1-0.5,2.3-0.7,3.8-0.7c1.6,0,3,0.3,4.2,0.8
			c1.2,0.5,1.9,1.2,2.3,2c0.4,0.8,0.6,2.1,0.6,4L75.6,13.3L75.6,13.3z"/>
		<path class="st1" d="M83.3,18h-5.7v-1.3c0-1.5,0.2-2.7,0.5-3.5c0.3-0.8,1-1.6,2.1-2.2c1.1-0.6,2.5-1,4.1-1c2.1,0,3.6,0.4,4.6,1.1
			c1,0.7,1.6,1.6,1.9,2.6c0.2,1,0.3,3.2,0.3,6.4V30h-5.9v-1.7c-0.4,0.7-0.9,1.2-1.4,1.6c-0.6,0.3-1.3,0.5-2.1,0.5
			c-1,0-2-0.3-2.9-0.9c-0.9-0.6-1.3-1.9-1.3-3.9V24c0-1.5,0.2-2.5,0.7-3s1.6-1.1,3.5-1.9c2-0.8,3-1.3,3.2-1.6
			c0.1-0.3,0.2-0.8,0.2-1.6c0-1-0.1-1.7-0.2-2c-0.1-0.3-0.4-0.5-0.8-0.5c-0.4,0-0.7,0.1-0.7,0.4c-0.1,0.3-0.1,0.9-0.1,2V18z
			 M85.2,20.7c-1,0.7-1.5,1.3-1.7,1.8c-0.1,0.5-0.2,1.1-0.2,2c0,1,0.1,1.7,0.2,2c0.1,0.3,0.4,0.4,0.8,0.4c0.4,0,0.6-0.1,0.7-0.3
			c0.1-0.2,0.2-0.9,0.2-1.8V20.7z"/>
		<path class="st1" d="M99.5,6v3.1h-6.2V6H99.5z M99.5,10.4V30h-6.2V10.4H99.5z"/>
		<path class="st1" d="M107.8,10.4l-0.1,1.8c0.4-0.7,1-1.3,1.6-1.6c0.6-0.4,1.3-0.6,2.2-0.6c1,0,1.9,0.3,2.5,0.7
			c0.7,0.5,1.1,1.1,1.3,1.8c0.2,0.7,0.3,2,0.3,3.7V30h-6V16.4c0-1.4,0-2.2-0.1-2.5c-0.1-0.3-0.3-0.4-0.7-0.4c-0.4,0-0.7,0.2-0.8,0.5
			c-0.1,0.3-0.1,1.3-0.1,2.7V30h-6V10.4H107.8z"/>
		<path class="st1" d="M124,7.7v3.1h1.6V14H124v10.5c0,1.3,0.1,2,0.2,2.1c0.2,0.1,0.7,0.2,1.7,0.2V30h-2.4c-1.4,0-2.4-0.1-2.9-0.2
			c-0.6-0.1-1.1-0.4-1.6-0.8s-0.7-0.9-0.8-1.4c-0.1-0.5-0.1-1.8-0.1-3.7v-10h-1.3v-3.1h1.3V7.7L124,7.7L124,7.7z"/>
		<path class="st1" d="M147,14.9h-6.3v-2.2c0-1.4-0.1-2.2-0.2-2.6c-0.1-0.3-0.4-0.5-0.9-0.5c-0.4,0-0.6,0.1-0.8,0.4
			c-0.1,0.3-0.2,1.1-0.2,2.3v11.5c0,1.1,0.1,1.8,0.2,2.1c0.1,0.3,0.4,0.5,0.8,0.5c0.4,0,0.8-0.2,0.9-0.6c0.1-0.4,0.3-1.1,0.3-2.3
			v-2.9h-1.3v-3.6h7.4V30h-4l-0.6-1.7c-0.4,0.7-1,1.3-1.6,1.7c-0.6,0.4-1.4,0.6-2.3,0.6c-1,0-2.1-0.3-2.9-0.8
			c-0.9-0.5-1.6-1.1-2.1-1.9c-0.5-0.7-0.8-1.6-0.9-2.4s-0.2-2.1-0.2-3.7v-7.1c0-2.3,0.1-4,0.4-5c0.3-1,1-2,2.1-2.9
			c1.2-0.9,2.7-1.3,4.6-1.3c1.8,0,3.4,0.4,4.6,1.1c1.2,0.7,2,1.6,2.4,2.7c0.4,1,0.6,2.5,0.6,4.5L147,14.9L147,14.9z"/>
		<path class="st1" d="M162.9,20.6h-7.8v4.3c0,0.9,0.1,1.4,0.2,1.7c0.1,0.3,0.4,0.4,0.7,0.4c0.4,0,0.7-0.2,0.9-0.5
			c0.1-0.3,0.2-1,0.2-2v-2.6h5.7v1.4c0,1.2-0.1,2.1-0.2,2.8c-0.1,0.7-0.5,1.3-1.1,2.1c-0.6,0.7-1.3,1.3-2.2,1.7
			c-0.9,0.4-2,0.6-3.3,0.6c-1.3,0-2.4-0.2-3.4-0.6c-1-0.4-1.7-0.9-2.3-1.5c-0.5-0.6-0.9-1.3-1.1-2.1c-0.2-0.8-0.3-1.9-0.3-3.3v-5.7
			c0-1.7,0.2-3.1,0.7-4.1s1.2-1.7,2.3-2.3c1-0.5,2.3-0.8,3.7-0.8c1.7,0,3.1,0.3,4.2,1c1.1,0.6,1.9,1.5,2.3,2.5
			c0.4,1,0.7,2.5,0.7,4.4L162.9,20.6L162.9,20.6z M156.9,17.3v-1.4c0-1-0.1-1.7-0.1-2c-0.1-0.3-0.3-0.4-0.7-0.4
			c-0.4,0-0.7,0.1-0.8,0.4c-0.1,0.3-0.1,0.9-0.1,2v1.4L156.9,17.3L156.9,17.3z"/>
		<path class="st1" d="M178.5,17.3v4.8c0,1.8-0.1,3.1-0.3,3.9c-0.2,0.8-0.6,1.6-1.2,2.3c-0.6,0.7-1.3,1.3-2.3,1.6
			c-0.9,0.3-2,0.5-3.2,0.5c-1.3,0-2.5-0.1-3.4-0.4c-0.9-0.3-1.6-0.7-2.2-1.3s-0.9-1.3-1.1-2.1c-0.2-0.9-0.3-2.1-0.3-3.7v-5
			c0-1.8,0.2-3.3,0.6-4.3c0.4-1,1.1-1.9,2.2-2.5c1-0.6,2.4-0.9,4-0.9c1.3,0,2.5,0.2,3.5,0.6c1,0.4,1.7,0.9,2.2,1.6
			c0.5,0.6,0.9,1.3,1.1,2C178.4,14.9,178.5,15.9,178.5,17.3z M172.5,15.8c0-1-0.1-1.6-0.1-1.9c-0.1-0.3-0.3-0.4-0.7-0.4
			c-0.4,0-0.6,0.1-0.7,0.4c-0.1,0.3-0.2,0.9-0.2,1.9v8.9c0,0.9,0.1,1.5,0.2,1.8c0.1,0.3,0.3,0.4,0.7,0.4c0.4,0,0.6-0.1,0.7-0.4
			c0.1-0.3,0.2-0.8,0.2-1.7L172.5,15.8L172.5,15.8z"/>
		<path class="st1" d="M186.6,10.4l-0.2,2.6c0.9-1.9,2.2-2.8,3.8-2.9V17c-1.1,0-1.9,0.1-2.4,0.4c-0.5,0.3-0.8,0.7-1,1.2
			c-0.1,0.5-0.2,1.7-0.2,3.7v7.8h-6V10.4H186.6z"/>
		<path class="st1" d="M205.2,10.4v15.1c0,2,0,3.4-0.1,4s-0.4,1.2-1,1.9c-0.6,0.7-1.4,1.2-2.4,1.5c-1,0.3-2.3,0.5-3.9,0.5
			c-1.9,0-3.5-0.3-4.6-1c-1.2-0.6-1.8-1.9-1.8-3.8h5.9c0,0.9,0.3,1.3,1,1.3c0.4,0,0.7-0.1,0.9-0.4c0.1-0.3,0.2-0.8,0.2-1.7v-1.5
			c-0.5,0.5-1,0.8-1.6,1s-1.2,0.4-1.8,0.4c-1.1,0-2-0.2-2.7-0.7c-0.7-0.4-1.2-1-1.5-1.7c-0.3-0.7-0.4-1.7-0.4-3v-7.1
			c0-1.9,0.3-3.2,1-4c0.7-0.8,1.7-1.2,3.1-1.2c0.7,0,1.5,0.1,2.1,0.4c0.6,0.3,1.2,0.8,1.7,1.4l0.4-1.5L205.2,10.4L205.2,10.4z
			 M199.2,15.6c0-0.9,0-1.5-0.2-1.7c-0.1-0.3-0.3-0.4-0.7-0.4c-0.3,0-0.6,0.1-0.7,0.4c-0.1,0.3-0.2,0.9-0.2,1.7v6.6
			c0,0.9,0.1,1.4,0.1,1.7c0.1,0.3,0.3,0.4,0.7,0.4c0.4,0,0.7-0.1,0.8-0.5s0.2-1,0.2-2.1L199.2,15.6L199.2,15.6z"/>
		<path class="st1" d="M221,20.6h-7.8v4.3c0,0.9,0.1,1.4,0.2,1.7c0.1,0.3,0.4,0.4,0.7,0.4c0.4,0,0.7-0.2,0.9-0.5
			c0.1-0.3,0.2-1,0.2-2v-2.6h5.7v1.4c0,1.2-0.1,2.1-0.2,2.8c-0.1,0.7-0.5,1.3-1.1,2.1c-0.6,0.7-1.3,1.3-2.2,1.7
			c-0.9,0.4-2,0.6-3.3,0.6c-1.3,0-2.4-0.2-3.4-0.6c-1-0.4-1.7-0.9-2.3-1.5c-0.5-0.6-0.9-1.3-1.1-2.1c-0.2-0.8-0.3-1.9-0.3-3.3v-5.7
			c0-1.7,0.2-3.1,0.7-4.1c0.5-1,1.2-1.7,2.3-2.3c1-0.5,2.3-0.8,3.7-0.8c1.7,0,3.1,0.3,4.2,1c1.1,0.6,1.9,1.5,2.3,2.5
			c0.4,1,0.7,2.5,0.7,4.4L221,20.6L221,20.6z M215,17.3v-1.4c0-1-0.1-1.7-0.1-2c-0.1-0.3-0.3-0.4-0.7-0.4c-0.4,0-0.7,0.1-0.8,0.4
			c-0.1,0.3-0.1,0.9-0.1,2v1.4L215,17.3L215,17.3z"/>
		<path class="st1" d="M65.9,36v8.3h-1.5V36H65.9z"/>
		<path class="st1" d="M67.7,44.3V36h1.7l2.2,3.6c0.6,0.9,1,1.9,1.4,2.8h0c-0.1-1.1-0.1-2.2-0.1-3.4V36h1.4v8.3h-1.6l-2.2-3.6
			c-0.5-0.9-1.1-1.9-1.5-2.9h0c0.1,1.1,0.1,2.1,0.1,3.5v3H67.7z"/>
		<path class="st1" d="M76,42.7c0.5,0.3,1.2,0.5,2,0.5c1,0,1.5-0.4,1.5-1.1c0-0.6-0.4-1-1.5-1.4c-1.4-0.5-2.2-1.2-2.2-2.4
			c0-1.3,1.1-2.4,2.9-2.4c0.9,0,1.6,0.2,2,0.4l-0.4,1.2c-0.3-0.1-0.9-0.4-1.6-0.4c-1,0-1.4,0.5-1.4,1c0,0.6,0.5,0.9,1.6,1.4
			c1.5,0.6,2.2,1.3,2.2,2.4c0,1.3-1,2.5-3.2,2.5c-0.9,0-1.8-0.3-2.2-0.5L76,42.7z"/>
		<path class="st1" d="M83.9,36v4.8c0,1.6,0.7,2.4,1.7,2.4c1.1,0,1.8-0.7,1.8-2.4V36h1.5v4.7c0,2.6-1.3,3.7-3.3,3.7
			c-1.9,0-3.2-1.1-3.2-3.7V36H83.9z"/>
		<path class="st1" d="M90.7,36.1C91.2,36,92.1,36,93,36c1.2,0,2,0.2,2.6,0.7c0.4,0.4,0.7,1,0.7,1.7c0,1.1-0.7,1.8-1.5,2.1v0
			c0.6,0.2,1,0.8,1.2,1.6c0.3,1,0.5,2,0.7,2.3H95c-0.1-0.3-0.3-0.9-0.6-2c-0.2-1.1-0.6-1.4-1.5-1.4h-0.8v3.4h-1.5L90.7,36.1
			L90.7,36.1z M92.2,39.8h0.9c1,0,1.7-0.6,1.7-1.4c0-0.9-0.6-1.3-1.6-1.3c-0.5,0-0.8,0-0.9,0.1V39.8z"/>
		<path class="st1" d="M99.5,42l-0.7,2.3h-1.6l2.7-8.3h1.9l2.7,8.3h-1.6l-0.7-2.3H99.5z M101.9,40.8l-0.7-2
			c-0.1-0.5-0.3-1.1-0.4-1.6h0c-0.1,0.5-0.3,1-0.4,1.6l-0.6,2H101.9z"/>
		<path class="st1" d="M105.6,44.3V36h1.7l2.2,3.6c0.6,0.9,1,1.9,1.4,2.8h0c-0.1-1.1-0.2-2.2-0.2-3.4V36h1.4v8.3h-1.6l-2.2-3.6
			c-0.5-0.9-1.1-1.9-1.5-2.9h0c0.1,1.1,0.1,2.1,0.1,3.5v3H105.6z"/>
		<path class="st1" d="M120,44.1c-0.4,0.2-1.2,0.4-2.2,0.4c-2.7,0-4.3-1.6-4.3-4.1c0-2.7,1.9-4.4,4.4-4.4c1,0,1.7,0.2,2,0.4
			l-0.3,1.2c-0.4-0.2-0.9-0.3-1.6-0.3c-1.7,0-2.9,1-2.9,3c0,1.8,1.1,3,2.9,3c0.6,0,1.3-0.1,1.6-0.3L120,44.1z"/>
		<path class="st1" d="M125.9,40.6h-3.1v2.4h3.5v1.2h-5V36h4.9v1.2h-3.3v2.1h3.1V40.6z"/>
		<path class="st1" d="M130.2,36.1c0.5-0.1,1.3-0.2,2.2-0.2c1.1,0,1.8,0.1,2.4,0.5c0.5,0.3,0.9,0.9,0.9,1.6c0,0.8-0.5,1.4-1.4,1.8v0
			c0.9,0.2,1.7,0.9,1.7,2c0,0.7-0.3,1.3-0.8,1.7c-0.6,0.5-1.6,0.8-3.1,0.8c-0.9,0-1.5-0.1-1.9-0.1L130.2,36.1L130.2,36.1z
			 M131.7,39.4h0.8c1,0,1.6-0.5,1.6-1.2c0-0.8-0.6-1.1-1.6-1.1c-0.4,0-0.7,0-0.9,0.1V39.4z M131.7,43.2c0.2,0,0.4,0,0.8,0
			c1,0,1.8-0.4,1.8-1.4c0-1-0.9-1.3-1.9-1.3h-0.7V43.2z"/>
		<path class="st1" d="M137.3,36.1c0.6-0.1,1.4-0.2,2.3-0.2c1.2,0,2,0.2,2.6,0.7c0.4,0.4,0.7,1,0.7,1.7c0,1.1-0.7,1.8-1.5,2.1v0
			c0.6,0.2,1,0.8,1.2,1.6c0.3,1,0.5,2,0.7,2.3h-1.6c-0.1-0.3-0.3-0.9-0.6-2c-0.2-1.1-0.6-1.4-1.5-1.4h-0.8v3.4h-1.5L137.3,36.1
			L137.3,36.1z M138.8,39.8h0.9c1,0,1.7-0.6,1.7-1.4c0-0.9-0.6-1.3-1.6-1.3c-0.5,0-0.8,0-0.9,0.1V39.8z"/>
		<path class="st1" d="M151.7,40.1c0,2.8-1.7,4.4-4,4.4c-2.4,0-3.8-1.8-3.8-4.2c0-2.6,1.6-4.3,4-4.3
			C150.3,35.9,151.7,37.7,151.7,40.1z M145.5,40.2c0,1.7,0.9,3,2.3,3s2.3-1.3,2.3-3.1c0-1.6-0.8-3-2.3-3
			C146.3,37.1,145.5,38.5,145.5,40.2z"/>
		<path class="st1" d="M153,36h1.5v3.8h0c0.2-0.3,0.4-0.6,0.6-0.9l2.2-2.9h1.9l-2.9,3.5l3.1,4.7h-1.8l-2.4-3.8l-0.7,0.9v2.9H153
			L153,36L153,36z"/>
		<path class="st1" d="M164.9,40.6h-3.1v2.4h3.5v1.2h-5V36h4.9v1.2h-3.3v2.1h3.1V40.6z"/>
		<path class="st1" d="M166.6,36.1c0.6-0.1,1.4-0.2,2.3-0.2c1.2,0,2,0.2,2.6,0.7c0.4,0.4,0.7,1,0.7,1.7c0,1.1-0.7,1.8-1.5,2.1v0
			c0.6,0.2,1,0.8,1.2,1.6c0.3,1,0.5,2,0.7,2.3H171c-0.1-0.3-0.3-0.9-0.6-2c-0.2-1.1-0.6-1.4-1.5-1.4h-0.8v3.4h-1.5L166.6,36.1
			L166.6,36.1z M168.1,39.8h0.9c1,0,1.7-0.6,1.7-1.4c0-0.9-0.6-1.3-1.6-1.3c-0.5,0-0.8,0-0.9,0.1V39.8z"/>
		<path class="st1" d="M175.4,42l-0.7,2.3h-1.6l2.7-8.3h1.9l2.7,8.3h-1.6l-0.7-2.3H175.4z M177.8,40.8l-0.7-2
			c-0.1-0.5-0.3-1.1-0.4-1.6h0c-0.1,0.5-0.3,1-0.4,1.6l-0.6,2H177.8z"/>
		<path class="st1" d="M188,43.9c-0.5,0.2-1.6,0.5-2.7,0.5c-1.4,0-2.5-0.4-3.2-1.1c-0.7-0.7-1.2-1.8-1.2-3c0-2.6,1.9-4.3,4.6-4.3
			c1,0,1.8,0.2,2.2,0.4l-0.3,1.2c-0.4-0.2-1-0.4-1.9-0.4c-1.8,0-3,1-3,3c0,1.9,1.2,3,2.9,3c0.6,0,1-0.1,1.2-0.2v-2.1h-1.5v-1.2h3
			L188,43.9L188,43.9z"/>
		<path class="st1" d="M194.2,40.6h-3.1v2.4h3.5v1.2h-5V36h4.9v1.2h-3.3v2.1h3.1V40.6z"/>
		<path class="st1" d="M200,36v8.3h-1.5V36H200z"/>
		<path class="st1" d="M201.7,44.3V36h1.7l2.2,3.6c0.6,0.9,1,1.9,1.4,2.8h0c-0.1-1.1-0.1-2.2-0.1-3.4V36h1.4v8.3h-1.6l-2.2-3.6
			c-0.5-0.9-1.1-1.9-1.5-2.9h0c0.1,1.1,0.1,2.1,0.1,3.5v3H201.7z"/>
		<path class="st1" d="M216.1,44.1c-0.4,0.2-1.2,0.4-2.2,0.4c-2.7,0-4.3-1.6-4.3-4.1c0-2.7,1.9-4.4,4.4-4.4c1,0,1.7,0.2,2,0.4
			l-0.3,1.2c-0.4-0.2-0.9-0.3-1.6-0.3c-1.7,0-2.9,1-2.9,3c0,1.8,1.1,3,2.9,3c0.6,0,1.3-0.1,1.6-0.3L216.1,44.1z"/>
		<path class="st1" d="M217.1,43.5c0-0.6,0.4-1,0.9-1c0.6,0,0.9,0.4,0.9,1c0,0.6-0.4,1-0.9,1S217.1,44,217.1,43.5z"/>
		<path class="st1" d="M37.1,50H13C5.8,50,0,44.2,0,37.1V12.9C0,5.8,5.8,0,13,0h24c7.2,0,13,5.8,13,12.9v24.2
			C50.1,44.2,44.2,50,37.1,50z M13,3.3c-5.3,0-9.7,4.3-9.7,9.6v24.2c0,5.3,4.3,9.6,9.7,9.6h24c5.3,0,9.7-4.3,9.7-9.6V12.9
			c0-5.3-4.3-9.6-9.7-9.6L13,3.3L13,3.3z"/>
		<path class="st1" d="M35.5,39.4c-1.6-0.9-2-1.1-2-1.1s-0.9-0.4-0.9-0.5c0-0.1,0.6-1,0.3-2.3c-0.1-0.3-0.6-1.3-0.6-1.3
			s0.1,1.3-2.5,2c-1.6,0.4-1.7,0.9-2.6,2l1.5,2.8l0.8,1.3l0.5,0.9h9.5c-0.3-0.5-0.5-0.8-0.7-1C38.3,41.8,37.6,40.6,35.5,39.4z"/>
		<path class="st1" d="M8.2,19.7c0.5,0.4,1.8,0.6,1.8,0.6l2.5-1.1c0,0-1.1-0.7,0.3-1.4c0.3-0.1,0.6-0.1,1-0.2
			c0.9-0.1,2.6-0.1,2.6-0.1s-0.3-0.6-0.7-0.6c-0.1,0-3.6-0.2-5.3,0.9c-0.1,0.1-0.9,0.5-0.6,1.2c0.1,0.3,0.4,0.4,0.6,0.5
			c-0.2,0-0.6,0-1.3-0.2c-0.7-0.2-1.2-1.7,1.2-2.9c1.3-0.6,4.8-0.6,4.8-0.6l-1.6-1.5c-0.4-0.3-3.7,0.2-4.5,0.6
			c-0.8,0.4-1.5,1.2-1.9,2.4C6.9,18.4,7.7,19.3,8.2,19.7z"/>
		<path class="st1" d="M12.9,19.5l-2.6,1.1l0.7,0.6v0l0,0l0,0c0,0,0.6,1,0.9,1.1c1.4,0.7,2.8-0.8,3.2-1.1c1.6-1.3,2.4-1.6,2.4-1.6
			l0.9-0.2c-1.6-0.5-4.9,0.4-5.1,0.5L12.9,19.5z"/>
		<path class="st1" d="M22.2,16c0.3,0.3,0.2,0.1,0.3,0.2c0.6,0.3,1,0.4,1.2,0.5l0.5,0l0-0.1c0,0-0.2-0.5,0.1-0.7
			c0.7-0.3,0.9,1,2.8,1c1.4,0.1,2-1.4,2.1-1.5c0.1-0.4-0.9,0.6-2.9,0c-1.2-0.3-1.9-1.4-3.1-0.2c0.2-2.8,3.5-0.4,4.8-0.5
			c0.9,0,1.2-0.5,1.6-0.7c-0.1,0.1-1.6-0.1-2.3-0.4c-0.6-0.3-1.6-1.4-3.5-1.1c-0.4,0.1-1,0.3-1.5,0.7c-0.4,0.4-0.6,1.1-0.6,1.5
			C21.7,15,21.8,15.7,22.2,16z"/>
		<path class="st1" d="M42.2,19.7c-0.4-0.2-1.5,0.4-1.7,0.7c-0.3,0.3-0.9,1-1.5,2.2c-0.3,0.7-1.1,1.6-1.8,2.3
			c-0.5,0.3-0.9,0.7-1.2,0.8c-0.7,0.4-2,0.7-3.1,0.7c-0.7,0-1.4,0-1.6-0.1c-0.4-0.1-0.7-0.1-1-0.2c-0.7-0.2-3.5-1.4-4.1-1.6
			c0,0,0,0,0,0l3.5,0.1c0,0,1.1,0.1,2.2,0.3c1.5,0.2,2.7,0.1,4.1-1.4c1.3-1.4,1.4-2.6,2.2-4.6c0.4-1.1,2.1-0.6,2.1-0.6
			s-1-0.7-1.4-0.7c-0.6-0.1-1.6,0.2-2.2,0.7c-0.9,0.7-1.3,1.3-1.9,2c-0.7,1-1.9,1.7-2.9,2c-0.6,0.1-1.2,0.2-1.9,0.3
			c-0.9,0.1-1.9,0.2-2.8,0.2c-0.9,0-2,0.4-2,0.4l-1.9,0.9c0-0.1,0.1-0.2,0.1-0.3c0.1-0.1,0.2-0.3,0.2-0.3c0.2-0.1,0.7-0.3,0.7-0.4
			c0.1-0.1,0.9-0.3,1.4-0.5c2.7-1.1,6.6-1.3,6.6-1.3c0.3-1,0.8-8,0.8-8l-2.4,4.4c0,0-0.1,2.7-0.3,2.6c-0.1-0.1-1.3-0.4-1.5-0.5
			l4.9-8.5l-1-0.5L28,19.3c-0.7,0-1.9,1.1-2.6,2.1c-0.1-0.1-0.3-0.2-0.4-0.3c-0.1-0.2,0-0.5,0-0.5s0.2-0.3,0.3-0.4
			c0-0.2,0-0.6,0-0.7c0-0.1-0.2-0.7-0.3-0.8c-0.1-0.1-1,0.1-1.3,0.2c-0.3,0-1.1,0.5-1.1,0.5s0-0.9,0.1-1.1c0.1-0.3,0.7-1,1.7-1.1
			c1-0.1,1.6,0,1.6,0s-0.3-0.4-1-0.6c-0.4-0.1-0.6-0.1-1.2,0c-0.5,0.1-1.2,0.6-1.3,0.9c-0.1,0.3-0.3,0.6-0.3,0.6l-0.5,0.2l0.3,1.3
			l0.6-0.3c0,0,0.1,0.7,0.1,0.8c0,0.1,0.3,0,0.3,0.1s0,0.3,0,0.3l0.1,0.6c0,0,0,0.2,0.1,0.3c0.1,0.1,0.1,0,0.1,0c0.1-0.1,0,0,0,0
			l0.1-0.1c0,0,0.1-0.1,0.3-0.1c0,0,0.1,0,0.1,0s-0.2,0.1-0.3,0.1c0,0,0,0.1-0.1,0.1l0.1,0.3c0,0,0.1-0.1,0.2-0.1c0.1,0,0.3,0,0.3,0
			c0,0,0.1,0,0.1,0c0,0-0.1,0.1-0.1,0.2c-0.1,0-0.3,0.1-0.3,0.1l0,0.1l0.1,0.1c0,0,0,0.2,0,0.3c0,0.1,0.1,0.1,0.1,0.1
			C24,22.7,24,22.7,24,22.7c0,0-0.1,0.2-0.3,0.4c-0.1,0-0.9-0.6-1.1-0.7c-0.4-0.3-0.9-0.5-1.4-0.7c-1-0.1-2.9,1.3-2.9,1.3l-0.7-0.3
			c0,0,1.4-1.4,2.6-1.4c0.7,0,1.7,0.3,1.5,0.2C21,21,18.6,19.8,16.9,21c0.1,0-2,1.7-2.7,2.1c-2.7,1.5-3.5-1.3-3.5-1.3v4.4l0.3,0.4
			c0.2,0.4,0.5,0.6,0.5,0.6v1.9l-0.4,0.6l0,1.4l0.7,1.2l0.7,0l0.6-1H14l-0.6,1H14l0.6-0.9V30l0.4-1.2c0,0,0.4,0,1-1
			c0.9-1.3,0.3-2.3,0.1-2.5c-0.3-0.6-1.6-1.1-1.6-1.1l0,0c0,0,3,0.4,2.6,2.7c-0.4,2.3-0.9,3.4-1,4c0,0-0.8,1.8-0.9,1.9l4.2,2.1
			l1.3-2.6c0,0-1.2-0.8-0.6-1.8l3-6.1c0,0,0.8,0,1.2,0.1l-3.1,6.3c0,0-0.1,0.7,0.6,1.1c0,0,0.5,0.4,0.6,0.4L19,38.4l-0.2,2.1
			L15.8,43l0.6-4.1l1.5-1.1l1-2.1c0,0-4.3-2.1-4.3-2.1s-2.5,1.4-2.5,3.3l-2.5-2.4H8.5L6.7,37l-0.3,2.1c0,0,0.3,0.3,0.5,0.3
			c0.3,0,1.5-0.2,1.5-0.2l0.3-0.5l-0.6-1.6l0.3-0.4l1.7,2.3l-1.3,1.5c0,0-0.4,2.3-0.2,2.7c0.2,0.4,1.5,0.5,1.5,0.5l0.5,0
			c0,0,0.1-1.2,0-1.6c-0.3-0.6,0-1.4,0.5-2.1c0,0,1.8,1.9,2.2,2.2c1.5,1.1,8.7,0.9,8.7,0.9c-0.2-1.2-1.4-2.8-0.6-4.6
			c0.4-0.9,2-0.3,2-0.3l-0.9,4.8h5.8l-3.9-6.4l-1,0.7l-0.6-1l1-0.6l-1.5-2.4c0,0,1.7-2.9,1.9-3.2l0.6,0.9c0,0,1.7,0.5,2.8,0.3
			c1.3-0.2,2-0.9,2-0.9s1.3-3.5,1.3-3.5c0.5,0.3,1.1,0.6,1.7,0.9c0.3,0.2,1.9,1.2,3,1.5c1,0.3,2.8,0.4,3.2-0.7c0.6-1.8,3-0.8,3-0.8
			l1-0.7C42.8,27.1,45.6,21.5,42.2,19.7z"/>
		<path class="st1" d="M26.6,37.6c0.3-0.4,0.6-0.8,0.7-1c0.3-0.3,0.7-1,1.5-1.1c2.8-0.4,2.5-2.1,2.5-2.1l-1.6-2.2
			c0,0-0.5,0.9-1.1,1.1c-2.4,0.7-4.1-0.1-4.1-0.1l-0.6,1l1.2,1.9l1.2-0.7l0.7,0.9l-1.2,0.8L26.6,37.6z"/>
	</g>
</g>
</svg>
